<svg xmlns="http://www.w3.org/2000/svg" viewBox="0 0 300 400">
  <defs>
    <linearGradient id="bag" x1="20%" y1="0%" x2="80%" y2="100%">
      <stop offset="0%" stop-color="#282828"/>
      <stop offset="100%" stop-color="#0a0a0a"/>
    </linearGradient>
    <linearGradient id="stripe" x1="0%" y1="0%" x2="100%" y2="0%">
      <stop offset="0%" stop-color="#7a0050"/>
      <stop offset="100%" stop-color="#b0006a"/>
    </linearGradient>
    <linearGradient id="almondGrad" x1="0%" y1="0%" x2="100%" y2="100%">
      <stop offset="0%" stop-color="#8b005a"/>
      <stop offset="100%" stop-color="#3a0025"/>
    </linearGradient>
  </defs>
  <ellipse cx="150" cy="396" rx="100" ry="7" fill="rgba(0,0,0,0.5)"/>
  <rect x="35" y="15" width="230" height="368" rx="26" fill="url(#bag)"/>
  <rect x="35" y="40" width="6" height="318" rx="3" fill="rgba(255,255,255,0.04)"/>
  <rect x="259" y="40" width="6" height="318" rx="3" fill="rgba(255,255,255,0.04)"/>
  <rect x="35" y="15" width="230" height="30" rx="26" fill="#1e1e1e"/>
  <circle cx="150" cy="30" r="8" fill="#0a0a0a" stroke="#333" stroke-width="1"/>
  <line x1="60" y1="65" x2="240" y2="65" stroke="rgba(255,255,255,0.12)" stroke-width="0.5"/>
  <text x="150" y="100" font-family="Georgia,serif" font-size="22" font-weight="bold" fill="#f0ebe0" text-anchor="middle" letter-spacing="5">ALMOND</text>
  <text x="150" y="128" font-family="Georgia,serif" font-size="22" font-weight="bold" fill="#f0ebe0" text-anchor="middle" letter-spacing="5">ELITE</text>
  <text x="150" y="148" font-family="Arial,sans-serif" font-size="8" fill="rgba(255,255,255,0.4)" text-anchor="middle" letter-spacing="3">SWEET · SALTY · ELITE</text>
  <line x1="60" y1="162" x2="240" y2="162" stroke="rgba(255,255,255,0.12)" stroke-width="0.5"/>
  <circle cx="150" cy="235" r="62" fill="rgba(0,0,0,0.4)" stroke="rgba(255,255,255,0.08)" stroke-width="1"/>
  <ellipse cx="150" cy="232" rx="44" ry="34" fill="url(#almondGrad)" transform="rotate(-18,150,232)"/>
  <ellipse cx="150" cy="232" rx="28" ry="20" fill="#b0006a" transform="rotate(-18,150,232)"/>
  <ellipse cx="150" cy="232" rx="16" ry="11" fill="#c8a870" transform="rotate(-18,150,232)"/>
  <ellipse cx="150" cy="232" rx="8" ry="5" fill="#e8c890" transform="rotate(-18,150,232)"/>
  <!-- Raspberry dots decoration -->
  <circle cx="190" cy="198" r="9" fill="#c0006a" opacity="0.8"/>
  <circle cx="112" cy="272" r="6" fill="#900050" opacity="0.7"/>
  <circle cx="185" cy="265" r="5" fill="#c0006a" opacity="0.6"/>
  <rect x="35" y="307" width="230" height="76" rx="26" fill="url(#stripe)"/>
  <rect x="35" y="307" width="230" height="20" fill="url(#stripe)"/>
  <text x="150" y="340" font-family="Georgia,serif" font-size="12" font-weight="bold" fill="white" text-anchor="middle" letter-spacing="1">Raspberry</text>
  <text x="150" y="358" font-family="Georgia,serif" font-size="12" font-weight="bold" fill="white" text-anchor="middle" letter-spacing="1">Dark</text>
  <rect x="115" y="278" width="70" height="20" rx="10" fill="rgba(255,255,255,0.08)" stroke="rgba(255,255,255,0.15)" stroke-width="0.5"/>
  <text x="150" y="293" font-family="Arial,sans-serif" font-size="9" fill="rgba(255,255,255,0.6)" text-anchor="middle">120g</text>
</svg>
