<svg xmlns="http://www.w3.org/2000/svg" viewBox="0 0 300 400">
  <defs>
    <linearGradient id="bag" x1="20%" y1="0%" x2="80%" y2="100%">
      <stop offset="0%" stop-color="#1565c0"/>
      <stop offset="100%" stop-color="#0a3580"/>
    </linearGradient>
    <linearGradient id="top" x1="0%" y1="0%" x2="100%" y2="0%">
      <stop offset="0%" stop-color="#1e7ad0"/>
      <stop offset="100%" stop-color="#2590e0"/>
    </linearGradient>
    <linearGradient id="chocFlow" x1="0%" y1="0%" x2="100%" y2="100%">
      <stop offset="0%" stop-color="#5a2e08"/>
      <stop offset="100%" stop-color="#8B4513"/>
    </linearGradient>
    <linearGradient id="almondGrad" x1="0%" y1="0%" x2="100%" y2="100%">
      <stop offset="0%" stop-color="#8B4513"/>
      <stop offset="100%" stop-color="#4a2000"/>
    </linearGradient>
  </defs>
  <ellipse cx="150" cy="396" rx="100" ry="7" fill="rgba(0,0,0,0.5)"/>
  <rect x="35" y="15" width="230" height="368" rx="26" fill="url(#bag)"/>
  <!-- Chocolate flow splash -->
  <path d="M60,170 Q100,140 150,145 Q200,140 240,170 L240,220 Q200,200 150,205 Q100,200 60,220 Z" fill="url(#chocFlow)" opacity="0.9"/>
  <path d="M80,190 Q120,175 150,178 Q180,175 220,190" stroke="#c87020" stroke-width="2" fill="none" opacity="0.6"/>
  <rect x="35" y="40" width="6" height="318" rx="3" fill="rgba(255,255,255,0.06)"/>
  <rect x="259" y="40" width="6" height="318" rx="3" fill="rgba(255,255,255,0.06)"/>
  <rect x="35" y="15" width="230" height="30" rx="26" fill="#1e7ad0"/>
  <circle cx="150" cy="30" r="8" fill="#1565c0" stroke="#0a4090" stroke-width="1"/>
  <line x1="60" y1="65" x2="240" y2="65" stroke="rgba(255,255,255,0.2)" stroke-width="0.5"/>
  <text x="150" y="96" font-family="Georgia,serif" font-size="22" font-weight="bold" fill="white" text-anchor="middle" letter-spacing="4">Almond</text>
  <text x="150" y="122" font-family="Georgia,serif" font-size="22" font-weight="bold" fill="white" text-anchor="middle" letter-spacing="4">Elite</text>
  <text x="150" y="142" font-family="Arial,sans-serif" font-size="7" fill="rgba(255,255,255,0.5)" text-anchor="middle" letter-spacing="2">SWEET · SALTY · ELITE</text>
  <!-- Product visual -->
  <circle cx="150" cy="270" r="60" fill="rgba(0,0,0,0.35)" stroke="rgba(255,255,255,0.08)" stroke-width="1"/>
  <ellipse cx="150" cy="267" rx="42" ry="32" fill="url(#almondGrad)" transform="rotate(-15,150,267)"/>
  <ellipse cx="150" cy="267" rx="26" ry="19" fill="#c87020" transform="rotate(-15,150,267)"/>
  <ellipse cx="150" cy="267" rx="14" ry="10" fill="#c8a870" transform="rotate(-15,150,267)"/>
  <ellipse cx="150" cy="267" rx="7" ry="4" fill="#e8c890" transform="rotate(-15,150,267)"/>
  <!-- Caramel & chocolate decoration -->
  <circle cx="110" cy="240" r="7" fill="#8B4513" opacity="0.7"/>
  <circle cx="190" cy="295" r="6" fill="#c87020" opacity="0.7"/>
  <!-- Flavor name -->
  <rect x="35" y="340" width="230" height="43" rx="26" fill="rgba(0,0,0,0.3)"/>
  <text x="150" y="358" font-family="Arial,sans-serif" font-size="9" font-weight="bold" fill="white" text-anchor="middle" letter-spacing="1">SALTED CARAMEL</text>
  <text x="150" y="373" font-family="Arial,sans-serif" font-size="9" font-weight="bold" fill="white" text-anchor="middle" letter-spacing="1">MILK CHOCOLATE</text>
  <rect x="115" y="318" width="70" height="18" rx="9" fill="rgba(255,255,255,0.1)" stroke="rgba(255,255,255,0.15)" stroke-width="0.5"/>
  <text x="150" y="331" font-family="Arial,sans-serif" font-size="9" fill="rgba(255,255,255,0.6)" text-anchor="middle">120g</text>
</svg>
